<svg width="93" height="90" xmlns="http://www.w3.org/2000/svg"><g fill="none" fill-rule="evenodd"><rect stroke="#139FF0" stroke-width="1.5" x=".75" y="32.054" width="91.435" height="26.87" rx="4"/><path d="M9.545 36.983h10.331a2 2 0 0 1 2 2v10.241a2 2 0 0 1-2 2H9.545a2 2 0 0 1-2-2V38.983a2 2 0 0 1 2-2z" fill="#139FF0" fill-opacity=".2"/><path d="M10.295 37.733h8.831a2 2 0 0 1 2 2v8.741a2 2 0 0 1-2 2h-8.831a2 2 0 0 1-2-2v-8.741a2 2 0 0 1 2-2z" stroke="#139FF0" stroke-width="1.5"/><path d="M26.355 38.318H69.35m5.374 0h10.749m-10.749 5.34h10.749M74.724 49h10.749m-59.118-5.342H69.35M26.355 49h28.663" stroke="#139FF0" stroke-width="1.5" stroke-linecap="square"/><path d="M11.891 65.696h70.13a4 4 0 0 1 4 4v15.89a4 4 0 0 1-4 4h-70.13a4 4 0 0 1-4-4v-15.89a4 4 0 0 1 4-4zm0-65.696h70.13a4 4 0 0 1 4 4v15.89a4 4 0 0 1-4 4h-70.13a4 4 0 0 1-4-4V4a4 4 0 0 1 4-4z" fill-opacity=".2" fill="#139FF0" fill-rule="nonzero"/><path d="M26.744 6.335h42.994m-42.994 5h42.994m-42.89 5.445H55.51M26.744 72.335h42.994m-42.994 5h42.994m-42.89 5.445H55.51" stroke="#139FF0" stroke-width="1.5" stroke-linecap="square"/><path fill="#139FF0" fill-rule="nonzero" d="M17.755 14.5l-2.939 1.545.562-3.272L13 10.455l3.286-.478L17.756 7l1.469 2.977 3.286.478-2.378 2.318.561 3.272zm0 66l-2.939 1.545.562-3.272L13 76.455l3.286-.478L17.756 73l1.469 2.977 3.286.478-2.378 2.318.561 3.272z"/></g></svg>