<svg width="60" height="80" xmlns="http://www.w3.org/2000/svg" fill="none"><path stroke-miterlimit="10" stroke-width="2.5" stroke="#fff" d="M57.91 45.622V78.39H2.047V45.622l14.54.006 4.966-4.846h16.913l4.822 4.846 14.622-.006z"/><path stroke-miterlimit="10" stroke-width="2.5" stroke="#fff" d="M30 71.089c5.367 0 9.718-4.35 9.718-9.717 0-5.367-4.351-9.717-9.718-9.717s-9.717 4.35-9.717 9.717A9.716 9.716 0 0 0 30 71.089z"/><path fill="#fff" d="M9.41 53.335a1.43 1.43 0 1 0 0-2.86 1.43 1.43 0 0 0 0 2.86z"/><path stroke-miterlimit="10" stroke-width="2.5" stroke="#fff" d="M45.588 40.782h7.27m-3.635-1.243v6.089"/></svg>