<svg width="59" height="80" xmlns="http://www.w3.org/2000/svg" fill="none"><path fill="#fff" d="M38.806 40.86h17.046v36.245H2.571V40.86h17.046a9.78 9.78 0 0 1-.067-2.5H.07v41.245h58.282V38.36H38.873a9.828 9.828 0 0 1-.067 2.5z" clip-rule="evenodd" fill-rule="evenodd"/><path stroke-linejoin="round" stroke-width="2.5" stroke="#fff" d="M29.212 49.06c5.363 0 9.71-4.349 9.71-9.712a9.712 9.712 0 1 0-9.71 9.71v.001z"/><path stroke-miterlimit="10" stroke-width="2.5" stroke="#fff" d="M15.472 60.136a4.247 4.247 0 1 0 0-8.493 4.247 4.247 0 0 0 0 8.493zm15.824 4.087h18.18m-18.205-7.32h18.18M22.11 70.423v-1.188a6.595 6.595 0 1 0-13.19 0v1.187m20.515-31a1.907 1.907 0 1 1 1.907-1.907m-1.907 1.907a1.907 1.907 0 1 1-1.901 1.906m1.901-7.625v1.906m0 9.527V43.23"/></svg>