<svg width="84" height="63" xmlns="http://www.w3.org/2000/svg"><g fill="none" fill-rule="evenodd"><g transform="translate(50.571 9.117)"><rect stroke="#139FF0" stroke-width="1.5" fill="#FFF" x=".75" y=".75" width="31.929" height="44.084" rx="2"/><path d="M14.107 19.695c-2.302-1.178-3.911-3.868-3.911-6.997 0-4.216 1.335-7.633 6.518-7.633s6.519 3.417 6.519 7.633c0 3-1.48 5.597-3.631 6.844.027 1.38.24 2.268.64 2.664.641.637 3.236.97 5.012 1.52 1.184.365 1.958 1.341 2.325 2.928v4.58H5.85v-4.405c.326-1.586 1.08-2.572 2.262-2.956 1.773-.576 5.415-.932 5.706-1.667.174-.438.27-1.275.29-2.51z" fill-opacity=".2" fill="#139FF0"/><path d="M1.254 30.812h30.921" stroke="#139FF0" stroke-width="1.5" stroke-linecap="square"/></g><path d="M59.204 51.024l-1.009.6.193-1.27-.817-.898 1.129-.185.504-1.154.505 1.154 1.128.185-.816.899.193 1.268zm4.083 0l-1.01.6.193-1.27-.816-.898 1.128-.185.505-1.154.505 1.154 1.128.185-.817.899.193 1.268zm4.083 0l-1.01.6.193-1.27-.817-.898 1.129-.185.504-1.154.505 1.154 1.128.185-.816.899.193 1.268zm4.082 0l-1.01.6.193-1.27-.816-.898 1.128-.185.505-1.154.505 1.154 1.128.185-.817.899.193 1.268zm4.082 0l-1.009.6.193-1.27-.817-.898 1.129-.185.504-1.154.505 1.154 1.128.185-.816.899.193 1.268z" fill="#139FF0"/><path fill-opacity=".2" fill="#139FF0" d="M60.571 43.117h13.833v3.506H60.57z"/><g transform="translate(0 9.117)"><rect stroke="#139FF0" stroke-width="1.5" fill="#FFF" x=".75" y=".75" width="31.929" height="44.084" rx="2"/><path d="M14.107 19.695c-2.302-1.178-3.911-3.868-3.911-6.997 0-4.216 1.335-7.633 6.518-7.633s6.519 3.417 6.519 7.633c0 3-1.48 5.597-3.631 6.844.027 1.38.24 2.268.64 2.664.641.637 3.236.97 5.012 1.52 1.184.365 1.958 1.341 2.325 2.928v4.58H5.85v-4.405c.326-1.586 1.08-2.572 2.262-2.956 1.773-.576 5.415-.932 5.706-1.667.174-.438.27-1.275.29-2.51z" fill-opacity=".2" fill="#139FF0"/><path d="M1.254 30.812h30.921" stroke="#139FF0" stroke-width="1.5" stroke-linecap="square"/></g><path d="M8.633 51.024l-1.01.6.194-1.27L7 49.457l1.128-.185.505-1.154.505 1.154 1.128.185-.816.899.192 1.268zm4.083 0l-1.01.6.193-1.27-.816-.898 1.128-.185.505-1.154.504 1.154 1.129.185-.817.899.193 1.268zm4.082 0l-1.01.6.194-1.27-.817-.898 1.128-.185.505-1.154.505 1.154 1.128.185-.816.899.192 1.268zm4.082 0l-1.009.6.193-1.27-.816-.898 1.128-.185.505-1.154.504 1.154 1.129.185-.817.899.193 1.268zm4.083 0l-1.01.6.194-1.27-.817-.898 1.128-.185.505-1.154.505 1.154 1.128.185-.816.899.192 1.268z" fill="#139FF0"/><path fill-opacity=".2" fill="#139FF0" d="M10 43.117h13.833v3.506H10z"/><g stroke="#139FF0" stroke-width="1.5" transform="translate(19.208)"><rect fill="#FFF" x=".75" y=".75" width="44.084" height="61.305" rx="2"/><path d="M8.727 37.041v5.242h28.13V36.81c-.45-1.895-1.327-2.994-2.643-3.405-.597-.186-1.252-.354-2.29-.596l-.976-.228c-2.288-.537-3.29-.866-3.877-1.455-.724-.725-1.051-2.104-1.09-4.186l-.01-.44.38-.221c2.77-1.622 4.58-5.001 4.58-8.784 0-6.498-2.299-9.766-8.139-9.766s-8.139 3.268-8.139 9.766c0 3.95 1.974 7.448 4.928 8.975l.413.213-.007.465c-.027 1.789-.165 3.01-.446 3.723-.366.932-1.287 1.206-4.982 1.963l-.096.02c-1.736.355-2.483.527-3.167.751-1.315.432-2.168 1.541-2.569 3.437z" fill="#139FF0"/><path d="M1.71 42.452h42.165" stroke-linecap="square"/></g><path d="M30.487 55.858l-1.409.794.27-1.683-1.14-1.192 1.575-.246.704-1.531.704 1.531 1.575.246-1.14 1.192.27 1.683zm5.698 0l-1.409.794.27-1.683-1.14-1.192 1.575-.246.704-1.531.704 1.531 1.575.246-1.14 1.192.27 1.683zm5.698 0l-1.409.794.27-1.683-1.14-1.192 1.575-.246.704-1.531.704 1.531 1.575.246-1.14 1.192.27 1.683zm5.698 0l-1.408.794.269-1.683-1.14-1.192 1.575-.246L47.58 52l.704 1.531 1.575.246-1.14 1.192.27 1.683zm5.699 0l-1.41.794.27-1.683L51 53.777l1.575-.246.704-1.531.705 1.531 1.574.246-1.14 1.192.27 1.683z" fill="#139FF0"/><path fill-opacity=".2" fill="#139FF0" d="M33.208 47h18.234v3.49H33.208z"/></g></svg>