<svg width="42" height="80" xmlns="http://www.w3.org/2000/svg" fill="none"><path stroke-miterlimit="10" stroke-width="2.5" stroke="#fff" d="M1.703 63.835v14.47h38.75v-41.08L29.557 26.208H1.703v37.627z"/><path stroke-miterlimit="10" stroke-width="2.5" stroke="#fff" d="M40.572 37.224H29.556V26.208m-19.26 20.59h12.053m-12.053 9.686h12.053m-12.053 9.693h12.053"/><path fill="#fff" d="m30.668 42.758 1.18 2.167 2.43.456-1.7 1.792.32 2.454-2.23-1.06-2.236 1.06.318-2.454-1.692-1.792 2.43-.456 1.18-2.167zm0 9.73 1.18 2.173 2.43.45-1.7 1.798.32 2.448-2.23-1.062-2.236 1.062.318-2.448-1.692-1.799 2.43-.45 1.18-2.172zm0 9.735 1.18 2.168 2.43.456-1.7 1.792.32 2.448-2.23-1.055-2.236 1.055.318-2.448-1.692-1.793 2.43-.455 1.18-2.167z"/><path stroke-miterlimit="10" stroke-width="2.5" stroke="#fff" d="M1.703 63.835v14.47h38.75v-41.08L29.557 26.208H1.703v37.627z"/><path stroke-miterlimit="10" stroke-width="2.5" stroke="#fff" d="M40.572 37.224H29.556V26.208"/></svg>