<svg width="128" height="128" viewBox="0 0 128 128" fill="none" xmlns="http://www.w3.org/2000/svg"><path fill-rule="evenodd" clip-rule="evenodd" d="M45.724 37.888a23.354 23.354 0 0114.358-6.744v-7.662h4v7.638a23.304 23.304 0 0116.688 9.147l-4.538.823a19.304 19.304 0 00-14.029-6.046A19.353 19.353 0 0042.888 54.37v.002l-.05 25.23-.002.94-.725.599-10.894 8.982v2.803h62.148v-2.89L82.25 81.064l-.744-.6v-8.825l4-.725v7.638l11.117 8.972.743.6v8.802H64.332v3.874h3.936v4H56.336v-4h3.995v-3.874H27.217v-8.689l.728-.6 10.895-8.984.048-24.288v-.001a23.353 23.353 0 016.836-16.476z" fill="#007FED"/><path d="M83.045 70.895c8.581 0 15.538-6.957 15.538-15.538 0-8.582-6.957-15.538-15.538-15.538s-15.538 6.956-15.538 15.538c0 8.581 6.957 15.538 15.538 15.538z" stroke="#007FED" stroke-width="4" stroke-linejoin="round"/><path d="M75.281 55.357l5.176 5.176L90.82 50.17" stroke="#007FED" stroke-width="4" stroke-miterlimit="10"/></svg>
